<svg xmlns="http://www.w3.org/2000/svg" viewBox="0 0 652.32 208.64"><defs><style>.cls-1{fill:#00205b}</style></defs><title>bluewater-logotype-2018</title><g id="Layer_2" data-name="Layer 2"><path class="cls-1" d="M647.54 125.14c-1.81-.31-3.39-1.11-5.2-1.39s-3.85-.16-5.58-.76c-2.33-.81-9.41-3.86-10.72-4.42-2.57-1.11-6.24-2.57-8.67-3.68-1.54-.7-5.43-1.64-6.64-2.79a10.73 10.73 0 0 1 1.89-1.23c.8-.42 3.06-1.48 3.8-2 3-2 6.33-3.47 9.05-6 3.12-2.94 5.22-4.68 7.25-8.57a31.08 31.08 0 0 0 1.49-4.79 8.71 8.71 0 0 0-.41-4.22 13.15 13.15 0 0 0-1.86-4.06c-2.41-4.1-12.14-8.53-15.13-9.93a22.71 22.71 0 0 0-6.17-2.22c-3.14-.6-5.51.22-6.81 3.33a3.93 3.93 0 0 1-.74 1l-3.24-.05a1.64 1.64 0 0 0-1.74 1.36c-1.35 4-1.45 8.08-1.61 12.21-.11 2.71-.05 15.49 0 19 0 1.39.31 15.09-.12 18.15a2 2 0 0 1-.12.39 15.17 15.17 0 0 0-4.93-.86 38.8 38.8 0 0 0-7.8.68c-3.08.46-5.51.65-8.63.94-2.83.26-4.15 0-6.38.09a6.54 6.54 0 0 1-1.35-.23c-.1-2-.19-5.88-.23-7.73v-7.46a1.45 1.45 0 0 1 1.17-1.49 9.79 9.79 0 0 1 2.05-.36c1.21-.13 4.94-.23 6.15-.33a21.22 21.22 0 0 1 3.13-.2c2.76.18 5-.75 5.25-1.82.34-1.31.71-2.44.21-3.43-.63-1.26-2.62-2.88-4.07-2.85-2.89.05-12.18.47-12.81.49a1.2 1.2 0 0 1-1.41-1.2 29.46 29.46 0 0 0-.25-3.24c-.4-2.27-.54-4-.59-4.32a75.2 75.2 0 0 1-.53-8c0-1.13 0-1.72 1.2-2a31 31 0 0 1 3.57-.7 22.06 22.06 0 0 1 3.94-.21c2.41.14 7.78.43 8.06.39a14.78 14.78 0 0 1 5.76.43 4.35 4.35 0 0 0 4.84-1.51 5.13 5.13 0 0 0 .69-5.68c-1.09-2-1.22-1.92-5.58-2.09a91.74 91.74 0 0 0-14.3.57 24.22 24.22 0 0 1-3.92.28 65.18 65.18 0 0 0-6.64.8 46.13 46.13 0 0 1-6.66.19c-2.25-.06-5.1-.33-7.75-.23a45.1 45.1 0 0 1-7.2-.23c-.56-.07-4.82 0-6.38 0-.26 0-7 .45-9.09.67-.63.07-10.67.13-12.41.23-2.94.17-4.17 1.7-4.16 4.45a10.52 10.52 0 0 0 .41 2c.45 2.18 1.22 3 3.3 2.91a43.71 43.71 0 0 0 7-.71 11.46 11.46 0 0 1 3 0c1.46.18 5.23-.67 6.07.7.16.27 1.94 8.26 2 9.47.09 2 .06 2.6.09 4.83 0 1.25.08 4.8.1 6.07 0 2.55 0 3.92.13 6.47 0 1-.34 11.94-.37 14.34 0 1.33.15 3.77.19 5.43a15.76 15.76 0 0 0 1.51 6.08c.78 1.74 3 2.38 4.81 1.95a6.38 6.38 0 0 0 3.29-2 11.53 11.53 0 0 0 2-3.3 17.52 17.52 0 0 0 .15-4.93c-.11-1-.16-2.64-.16-3.63 0-2.59.12-3.26.13-5.85 0-1.15-.46-10-.6-13.32-.06-1.44-.17-2.87-.27-4.31s-.18-3.1-.36-4.64c-.24-2-1.5-11.88-2.22-13.57-.37-.87 0-1.35 1-1.6.33-.09 4.74-.27 6.7-.23 1.77 0 5.38-.25 7.19-.37.27 0 .16 2.54.26 2.55a12.94 12.94 0 0 1 .94 5.34c-.1 2.76.16 5.46.13 8.3 0 1.35.45 16.45.45 20.18 0 .91 0 6.38-.22 8.54-.05.47-.34 4.33-.31 4.72a12.82 12.82 0 0 0 .21 2.58c1.08 3.7 3.77 5.05 4.87 5.12a46.28 46.28 0 0 0 6.75-.47c2.3-.44 10.37-2.52 11.46-2.51.91 0 6.42-1 7.53-.94 1.64.14 4.08-.31 6.34.15a5.56 5.56 0 0 1 3.61 3.19 2.79 2.79 0 0 0 2.09 1.68c2.6.3 4.26-.12 7.16-1.64a3.62 3.62 0 0 0 1.86-3.19c.09-2.06 0-4.14-.11-6.21-.06-1.67-.19-3.33-.23-5a6.88 6.88 0 0 1 .27-1.48c1.72-.62 2.37.24 3.92 1 1.39.64 12 4.75 13.23 5.24 2.15.83 6.59 3.09 12.38 5.62a4.06 4.06 0 0 1 1.77 1.37c.71 1.25 4.61 2.09 5.27 2.28a7 7 0 0 0 4.61-.58 6.34 6.34 0 0 0 3.43-3.73 5.94 5.94 0 0 0-4.43-7.27zm-39.11-22.38c-.41.19-.86.29-1.57.52-.15-.44-.34-3.79.29-10.15a76.46 76.46 0 0 1 1.3-8.53c.55-3 .78-3.59 1.87-5.2a2.89 2.89 0 0 1 2.46-1 23.24 23.24 0 0 1 7.37 3.21c2.26 1.6 3.55 2.37 4.37 4.53a4.84 4.84 0 0 1 .16 3.49 15.08 15.08 0 0 1-4.73 7c-2.42 2.03-10.41 5.63-11.52 6.14zM519 137.06c-1.42-.73-3.17-6-3.38-7a9.55 9.55 0 0 0-.95-3c-.78-1.59-1.88-4.18-2.58-5.75s-1.7-3.91-2.81-4.5c-3-1.61-17 .78-18.35 1.12a1.57 1.57 0 0 0-1.22.82c-1.29 2.47-2.82 4.82-3.63 7.51-.25.83-.4 1.68-.59 2.52 0 .11-2.3 6.93-3.71 8.34-.72.72-.58 1-2.66 1.27a4.73 4.73 0 0 1-4.72-1.77c-1-1.43-.76-3.12-.62-5.1a41.11 41.11 0 0 1 2.08-8c1-2.76 6-15 6.32-15.68.54-1.08 1-2.19 1.55-3.27.42-.88.88-1.74 1.32-2.62 1-2.07 2.06-4.14 3.06-6.22.17-.35 5-13.63 5.36-14.4.13-.26 1.59-4.86 2.09-6.94s1.17-2.74 3.27-2.48c1.67.27 3.23.4 4.69 1.53a5.36 5.36 0 0 1 2.05 4.56 23.86 23.86 0 0 0 1 7.18c1 2.88 2.17 5.7 3.29 8.53.45 1.13 1 2.22 1.45 3.34 1 2.29 2.07 4.53 2.82 6.88 1.13 3.56 6 13.08 6.77 14.56a25.2 25.2 0 0 0 1.23 2.26 31.08 31.08 0 0 1 2.64 6.34c.12.32 1.75 4.25 2.22 6 .29 1.09-.69 2.44-2.17 3-1 .37-2.08.67-3 1.08a2.49 2.49 0 0 1-2.82-.11zm-23.7-29.75c.19 0 .87.31 3.81.1s6 .3 7.07-.35c-.7-2.23-1.61-5-2.49-7.07s-1.13-4.46-3.06-6.14a25.68 25.68 0 0 0-1.22 2.51c-1.06 3-2.76 5.7-3.78 8.72-.25.73-.81 1.44-.33 2.23zm-84.78-35.57c-2.93.17-25.66.92-27.67 1.26-2.32.39-3.34 1.72-3.43 2.9-.16 2.14.33 3.9.27 5.16-.05 1-.17 14.7-.27 16.19-.08 1.18-.35 28.72-.49 29.9a36.64 36.64 0 0 0-.14 4.86c.23 2.7 2.66 5.54 5.77 5.4a85.35 85.35 0 0 1 10.31-.51c2.1 0 14.16-.45 15.53-.5s3.14.51 6.13.55c5.09.06 7.23-1.38 7.46-5.27a7.93 7.93 0 0 0-.69-4 3.53 3.53 0 0 0-3.12-1.94c-1.22.13-4.74.76-7 1-1.87.17-20.29.65-20.74.58a2.91 2.91 0 0 1-2.36-1.39c-1.43-2.79.17-11.74.15-14.36 0-2.38 1.51-2.46 3.94-2.49 1.59 0 11.93-.13 13.35-.8s1.55-3.09 1.47-4.74a3.84 3.84 0 0 0-3-3.26c-.93-.14-11 .45-12.86.52-1.67.07-2.56-.05-2.71-.83a19.35 19.35 0 0 1-.07-3.05c0-1 .21-13.09.24-13.91 0-.6.79-1.09 1.43-1.24a159.06 159.06 0 0 1 18.5-1.2c1.65 0 3.82-.3 4.06-3.8.11-2.06-.75-4.86-4.06-5.03zm9.82-1.99c-1.75.48-2.81 1.77-2.78 2.78 0 1.17 1.95 9.86 2.1 10.87.19 1.24 10.48 50.59 10.78 51.58a8.21 8.21 0 0 0 3.62 4.12 5.15 5.15 0 0 0 3.78.49c3.08-.75 4.51-4.84 4.86-7.29.45-3.2-.45-7-.39-8.73.08-2.43 3.09-18.76 3.09-19.18.21-1.46.38-2.27 1.38-2.24.78 0 1.38 1.74 2 3.4 3.24 8.76 4.6 12.32 5.77 15.59s2.16 9.09 2.66 10.6 1.95 4.08 3.61 4.44c1.93.42 3.19.84 4.84-.12s2.36-3.68 2.78-4.65c.76-1.6 16.78-50.23 17.1-50.82s1.74-1.85 2.16-3.53c.51-2.09.43-2.94-.16-3.72-.27-.36-5.33-4.54-8-3.51-3.31 1.29-4.23 7.15-4.37 8.61-.07.56-10.14 35.25-10.28 35.6-.21.56-.12.76-1 .76s-3.06-5.11-3.82-6.46c-.64-1.14-3.71-9.07-5.22-13.76-1.09-3.38-2.7-8.91-4-13.77-1.18-4.28-4.11-4.64-6.15-4.47-1.41.12-1.79.87-2.36 1.66-1.27 1.77-2 7.64-2.16 7.92-.49 1.39-2.15 10.62-2.22 11.11s-1 6.66-1.25 7.5-.56 1.39-1 1.39-.9-.76-1.25-2.36c-.14-.56-6.73-28.5-7.15-30.27a4 4 0 0 0-2.11-2.71c-.37-.21-3.28-1.19-4.86-.83zm-84.27 62.56c.47-3.85-2.8-6.49-4.71-6.51s-2.41.4-4.27.58c-2.66.26-5 1.33-8.73 1.49-3.48.15-3.22-.09-4.25-.52-.78-.32-.71-7-.71-7.58s.07-8 0-8.45 0-21.05.13-32.46a30.28 30.28 0 0 0 0-5.43c-.28-3.24-9.29-3.11-10.78.31-.93 2.14 0 14.13 0 14.13s.09 12 .17 14.75c.05 1.71 0 6.71-.09 7.63 0 0-.51 10.63-.55 13.49 0 1.18-.53 9.63.38 11.38.39.75.53 2 5.88 2.27 6.69.33 17.14-.46 22-.69 3.62-.17 5.06-.54 5.53-4.39zm-64.73 6.38c-2 0-8.87-.24-10.31-.39a31.62 31.62 0 0 1-4.93-1.14 7.12 7.12 0 0 1-2-1.48 17.91 17.91 0 0 1-1.35-3.23 3.14 3.14 0 0 1-.13-1.14l.13-1.08a8.27 8.27 0 0 1 .54-1.14c.67-1.08.74-1.14.94-3.09 0-.34.11-.38.27-1.41a6.58 6.58 0 0 0 .13-1.88c0-1.59.1-3.54 0-5.46s-.31-5.14-.31-7.12v-8c0-3.11.18-8.81.1-9s-.15-4.88-.1-6.56a32.69 32.69 0 0 0-.14-3.62l-.47-.4a10.85 10.85 0 0 1-1.82-2.76 3.12 3.12 0 0 1-.13-1.21 4.21 4.21 0 0 1 .61-2.08 9 9 0 0 1 2-2.22c.58-.45.47-.45 1.21-1a7.75 7.75 0 0 1 2.08-1.21 48.24 48.24 0 0 1 7-2 25.91 25.91 0 0 1 4.76-.51 40 40 0 0 1 7.4 1.07 44 44 0 0 1 8.27 3.23c5.85 3.87 5.81 10.19 5 14.7-.46 2.59-1.6 4.58-5.26 7.4-1.06.82-3.42 1.42-2.7 1.65a24.08 24.08 0 0 1 3.13 1.3c4.07 1.73 6.46 3.05 7.94 4.48a31.32 31.32 0 0 1 3.05 3.56 11.91 11.91 0 0 1 2 3.76 24.35 24.35 0 0 1 1.17 5.85 29.68 29.68 0 0 1-.14 6.31 28.61 28.61 0 0 1-3.55 8 17 17 0 0 1-2.85 2.59 36.94 36.94 0 0 1-4.93 2.54c-1 .43-3.19.92-4.74 1.42a22.34 22.34 0 0 1-5.81 1c-2.4.2-4.04.27-6.06.27zM273.21 93a16 16 0 0 0 4.11-2 9 9 0 0 0 3.1-3.54c.46-1.19.69-1.65.13-4.2s-2.64-3.17-3.41-3.64a13.47 13.47 0 0 0-4.46-1.39 21.35 21.35 0 0 0-2.79-.19 17.82 17.82 0 0 0-3.91.19c-1.28.25-1.12 1-1.12 1s-.06 3.84-.12 5.46v3l.19 4.22a1.2 1.2 0 0 0 1.05 1.3 32.49 32.49 0 0 0 3.43.29 8.88 8.88 0 0 0 3.8-.5zm5.95 35.27a30.73 30.73 0 0 0 6.22-2.76c1.37-.76 3.21-3.7 3.56-6a11 11 0 0 0-3.2-9.56 13.41 13.41 0 0 0-6.18-3.82 21.06 21.06 0 0 0-6.08-1.27c-2-.1-2.89-.29-4.11-.29a15.82 15.82 0 0 0-2.19 0c-1.51.1-2.11 1.09-2 3.45v4.41c0 1.19.23 4.4.23 6.11s.15 4.77.15 6-.12 2.79.33 3.24.07.74 1.73 1a26.81 26.81 0 0 0 3.9.3 35.28 35.28 0 0 0 7.64-.84zm71.44 10.93c2.56.17 16.68 1.37 20.45-7.63 3.17-7.58 4-24.35 4-28.79l.16-15.11c0-1.53-.17-8.41-.15-9.89.07-4-1.82-6.1-3.83-6.12s-3.47 1-5.12 3.53c-.57.89-1.07 2.16-1.07 9.27 0 4.42-.57 32.49-1.55 36.17s-1.66 8.41-7.63 8.41c-9.22 0-9.52-7.84-10-13.17-.29-3.42-.33-11.81-.33-11.81s-.47-8.4-.48-10.56.15-13.81.08-15.61a9.88 9.88 0 0 0-.45-3.55 5.22 5.22 0 0 0-2.66-2.78c-1.37-.56-4.9-.49-5.84 0-1.45.82-1.94 3.36-1.94 3.36-.07.92-.12 4.1-.14 6.5 0 3 .22 13.68 0 16.14-.12 1.63.17 8 .4 12.28.31 6 .94 12.16.94 12.16a31.2 31.2 0 0 0 1.57 6.51c1.99 4.9 5.89 10.18 13.59 10.69zM104.32 0a104.32 104.32 0 1 0 104.32 104.32A104.32 104.32 0 0 0 104.32 0zm0 156.48a52.16 52.16 0 1 1 52.16-52.16 52.16 52.16 0 0 1-52.16 52.16z" id="Lager_1" data-name="Lager 1"></path></g></svg>